<svg width="100" height="100" viewBox="0 0 100 100" fill="none" xmlns="http://www.w3.org/2000/svg">
<path fill-rule="evenodd" clip-rule="evenodd" d="M60.5359 6.22474C58.3171 2.84932 54.4963 0.62085 50.155 0.62085C45.8137 0.62085 41.9928 2.84937 39.7741 6.22485C24.2577 10.7195 12.9138 25.0351 12.9138 42.0002V57.1919C10.3259 60.39 8.77586 64.4623 8.77586 68.8967C8.77586 79.1807 17.1126 87.5174 27.3965 87.5174L37.7414 87.5174C37.7414 90.8098 39.0492 93.9673 41.3773 96.2953C43.7053 98.6233 46.8628 99.9312 50.1552 99.9312C53.4475 99.9312 56.605 98.6233 58.933 96.2953C61.2611 93.9673 62.569 90.8098 62.569 87.5174L72.9138 87.5174C83.1977 87.5174 91.5345 79.1807 91.5345 68.8967C91.5345 64.4623 89.9844 60.39 87.3965 57.1919V42.0002C87.3965 25.0349 76.0524 10.7192 60.5359 6.22474ZM21.1896 57.1919C21.1896 59.087 20.5393 60.9246 19.3472 62.3978C17.9079 64.1764 17.0517 66.4254 17.0517 68.8967C17.0517 74.61 21.6833 79.2416 27.3965 79.2416H72.9138C78.6271 79.2416 83.2586 74.61 83.2586 68.8967C83.2586 66.4253 82.4024 64.1764 80.9632 62.3978C79.7711 60.9246 79.1207 59.087 79.1207 57.1919V42.0002C79.1207 26.003 66.1524 13.0346 50.1552 13.0346C34.158 13.0346 21.1896 26.003 21.1896 42.0002V57.1919ZM47.2292 90.4434C46.4532 89.6674 46.0172 88.6149 46.0172 87.5174H54.2931C54.2931 88.6149 53.8571 89.6674 53.0811 90.4434C52.3051 91.2194 51.2526 91.6554 50.1552 91.6554C49.0577 91.6554 48.0052 91.2194 47.2292 90.4434Z" fill="black"/>
</svg>
